{
	"asset":{
		"version":"2.0",
		"generator":"Created using the official Cinema 4D glTF Exporter 1.000x284978"
	},
	"scenes":[{
		"nodes":[0]
	}],
	"nodes":[{
		"name":"Moon",
		"mesh":0
	}],
	"materials":[{
		"pbrMetallicRoughness":{
			"baseColorFactor":[0.5,
			0.5,
			0.5,
			1.0],
			"metallicFactor":1.0,
			"roughnessFactor":1.0
		},
		"emissiveFactor":[0.0,
		0.0,
		0.0],
		"alphaMode":"OPAQUE",
		"doubleSided":false,
		"name":"Moon"
	}],
	"meshes":[{
		"name":"Moon",
		"primitives":[{
			"attributes":{
				"POSITION":1,
				"NORMAL":2,
				"TEXCOORD_0":3
			},
			"indices":0,
			"material":0
		}]
	}],
	"accessors":[{
		"bufferView":0,
		"type":"SCALAR",
		"count":11460,
		"componentType":5123,
		"byteOffset":0,
		"min":[0],
		"max":[2274]
	},
	{
		"bufferView":1,
		"type":"VEC3",
		"count":2275,
		"componentType":5126,
		"byteOffset":0,
		"min":[-1.4451026916503907,
		-0.4276602268218994,
		-1.4510465860366822],
		"max":[0.49034708738327029,
		0.44162866473197939,
		1.4396108388900757]
	},
	{
		"bufferView":1,
		"type":"VEC3",
		"count":2275,
		"componentType":5126,
		"byteOffset":12,
		"min":[-0.99996018409729,
		-0.9972608089447022,
		-0.9998520612716675],
		"max":[0.9999984502792358,
		0.9999753832817078,
		0.9996744394302368]
	},
	{
		"bufferView":1,
		"type":"VEC2",
		"count":2275,
		"componentType":5126,
		"byteOffset":24,
		"min":[0.001821730867959559,
		0.0019919872283935549],
		"max":[0.9126871824264526,
		0.9980078935623169]
	}],
	"bufferViews":[{
		"buffer":0,
		"byteOffset":0,
		"byteLength":22920,
		"target":34963
	},
	{
		"buffer":0,
		"byteOffset":22920,
		"byteLength":72800,
		"target":34962,
		"byteStride":32
	}],
	"buffers":[{
		"uri":"data:application/octet-stream;base64,",
		"byteLength":95720
	}]
}