{
  "accessors": [
    {
      "bufferView": 2,
      "componentType": 5126,
      "count": 812,
      "max": [
        0.8237483501434326,
        3.350270986557007,
        0.12579450011253357
      ],
      "min": [
        -0.8237483501434326,
        -1.1529797315597534,
        -0.12579450011253357
      ],
      "type": "VEC3"
    },
    {
      "bufferView": 2,
      "byteOffset": 9744,
      "componentType": 5126,
      "count": 812,
      "max": [
        1.0,
        1.0,
        1.0
      ],
      "min": [
        -1.0,
        -1.0,
        -1.0
      ],
      "type": "VEC3"
    },
    {
      "bufferView": 3,
      "componentType": 5126,
      "count": 812,
      "max": [
        0.9998438358306885,
        1.0,
        1.0,
        1.0
      ],
      "min": [
        -0.9998437166213989,
        -0.6749634742736816,
        -1.0,
        1.0
      ],
      "type": "VEC4"
    },
    {
      "bufferView": 1,
      "componentType": 5126,
      "count": 812,
      "max": [
        0.99609375,
        0.937437891960144
      ],
      "min": [
        0.00390625,
        0.003907202742993832
      ],
      "type": "VEC2"
    },
    {
      "bufferView": 1,
      "byteOffset": 6496,
      "componentType": 5126,
      "count": 812,
      "max": [
        0.99609375,
        0.937437891960144
      ],
      "min": [
        0.00390625,
        0.003907202742993832
      ],
      "type": "VEC2"
    },
    {
      "bufferView": 1,
      "byteOffset": 12992,
      "componentType": 5126,
      "count": 812,
      "max": [
        0.99609375,
        0.937437891960144
      ],
      "min": [
        0.00390625,
        0.003907202742993832
      ],
      "type": "VEC2"
    },
    {
      "bufferView": 0,
      "componentType": 5125,
      "count": 3156,
      "type": "SCALAR"
    },
    {
      "bufferView": 2,
      "byteOffset": 19488,
      "componentType": 5126,
      "count": 10000,
      "max": [
        0.812891960144043,
        -0.576521635055542,
        0.11020465940237045
      ],
      "min": [
        -0.7959461808204651,
        -2.4765219688415527,
        -0.11020474880933762
      ],
      "type": "VEC3"
    },
    {
      "bufferView": 2,
      "byteOffset": 139488,
      "componentType": 5126,
      "count": 10000,
      "max": [
        0.0,
        0.0,
        1.0
      ],
      "min": [
        0.0,
        0.0,
        -1.0
      ],
      "type": "VEC3"
    },
    {
      "bufferView": 1,
      "byteOffset": 19488,
      "componentType": 5126,
      "count": 10000,
      "max": [
        0.9970619082450867,
        0.9984386563301086
      ],
      "min": [
        0.001561308279633522,
        0.001561308279633522
      ],
      "type": "VEC2"
    },
    {
      "bufferView": 0,
      "byteOffset": 12624,
      "componentType": 5125,
      "count": 24000,
      "type": "SCALAR"
    }
  ],
  "asset": {
    "extras": {
      "author": "bogdanzloy20280 (https://sketchfab.com/bogdanzloy20280)",
      "license": "CC-BY-4.0 (http://creativecommons.org/licenses/by/4.0/)",
      "source": "https://sketchfab.com/3d-models/paint-brush-f74bfe01ca1e459b8c730a8881ea88bb",
      "title": "Paint Brush"
    },
    "generator": "Sketchfab-13.74.0",
    "version": "2.0"
  },
  "bufferViews": [
    {
      "buffer": 0,
      "byteLength": 108624,
      "name": "floatBufferViews",
      "target": 34963
    },
    {
      "buffer": 0,
      "byteLength": 99488,
      "byteOffset": 108624,
      "byteStride": 8,
      "name": "floatBufferViews",
      "target": 34962
    },
    {
      "buffer": 0,
      "byteLength": 259488,
      "byteOffset": 208112,
      "byteStride": 12,
      "name": "floatBufferViews",
      "target": 34962
    },
    {
      "buffer": 0,
      "byteLength": 12992,
      "byteOffset": 467600,
      "byteStride": 16,
      "name": "floatBufferViews",
      "target": 34962
    }
  ],
  "buffers": [
    {
      "byteLength": 480592,
      "uri": "scene.bin"
    }
  ],
  "images": [
    {
      "uri": "textures/Material.007_baseColor.png"
    },
    {
      "uri": "textures/Material.007_metallicRoughness.png"
    },
    {
      "uri": "textures/Material.007_normal.png"
    },
    {
      "uri": "textures/Material.009_baseColor.png"
    }
  ],
  "materials": [
    {
      "doubleSided": true,
      "name": "Material.007",
      "normalTexture": {
        "index": 2,
        "texCoord": 1
      },
      "pbrMetallicRoughness": {
        "baseColorTexture": {
          "index": 0
        },
        "metallicRoughnessTexture": {
          "index": 1
        }
      }
    },
    {
      "doubleSided": true,
      "name": "Material.009",
      "pbrMetallicRoughness": {
        "baseColorTexture": {
          "index": 3
        },
        "metallicFactor": 0.0
      }
    }
  ],
  "meshes": [
    {
      "name": "brush.001_Material.007_0",
      "primitives": [
        {
          "attributes": {
            "NORMAL": 1,
            "POSITION": 0,
            "TANGENT": 2,
            "TEXCOORD_0": 3,
            "TEXCOORD_1": 4,
            "TEXCOORD_2": 5
          },
          "indices": 6,
          "material": 0,
          "mode": 4
        }
      ]
    },
    {
      "name": "brush.002_Material.009_0",
      "primitives": [
        {
          "attributes": {
            "NORMAL": 8,
            "POSITION": 7,
            "TEXCOORD_0": 9
          },
          "indices": 10,
          "material": 1,
          "mode": 4
        }
      ]
    }
  ],
  "nodes": [
    {
      "children": [
        1
      ],
      "matrix": [
        1.0,
        0.0,
        0.0,
        0.0,
        0.0,
        2.220446049250313e-16,
        -1.0,
        0.0,
        0.0,
        1.0,
        2.220446049250313e-16,
        0.0,
        0.0,
        0.0,
        0.0,
        1.0
      ],
      "name": "Sketchfab_model"
    },
    {
      "children": [
        2
      ],
      "matrix": [
        0.009999999776482582,
        0.0,
        0.0,
        0.0,
        0.0,
        0.0,
        0.009999999776482582,
        0.0,
        0.0,
        -0.009999999776482582,
        0.0,
        0.0,
        0.0,
        0.0,
        0.0,
        1.0
      ],
      "name": "Brush.fbx"
    },
    {
      "children": [
        3,
        5
      ],
      "name": "RootNode"
    },
    {
      "children": [
        4
      ],
      "matrix": [
        5.678455073744398,
        -1.1088503487036089e-06,
        22.368886036180637,
        0.0,
        22.368886036180488,
        -2.625675259395104e-06,
        -5.678455073744489,
        0.0,
        2.817787694476928e-06,
        23.07838821411115,
        4.287114690524015e-07,
        0.0,
        0.0,
        2.7857344150543213,
        0.0,
        1.0
      ],
      "name": "brush.001"
    },
    {
      "mesh": 0,
      "name": "brush.001_Material.007_0"
    },
    {
      "children": [
        6
      ],
      "matrix": [
        5.678455073744398,
        -1.1088503487036089e-06,
        22.368886036180637,
        0.0,
        22.368886036180488,
        -2.625675259395104e-06,
        -5.678455073744489,
        0.0,
        2.817787694476928e-06,
        23.07838821411115,
        4.287114690524015e-07,
        0.0,
        0.0,
        2.7857344150543213,
        0.0,
        1.0
      ],
      "name": "brush.002"
    },
    {
      "mesh": 1,
      "name": "brush.002_Material.009_0"
    }
  ],
  "samplers": [
    {
      "magFilter": 9729,
      "minFilter": 9987,
      "wrapS": 10497,
      "wrapT": 10497
    }
  ],
  "scene": 0,
  "scenes": [
    {
      "name": "Sketchfab_Scene",
      "nodes": [
        0
      ]
    }
  ],
  "textures": [
    {
      "sampler": 0,
      "source": 0
    },
    {
      "sampler": 0,
      "source": 1
    },
    {
      "sampler": 0,
      "source": 2
    },
    {
      "sampler": 0,
      "source": 3
    }
  ]
}
